<?xml version="1.0" standalone="no"?>
<!DOCTYPE svg PUBLIC "-//W3C//DTD SVG 20010904//EN"
 "http://www.w3.org/TR/2001/REC-SVG-20010904/DTD/svg10.dtd">
<svg version="1.0" xmlns="http://www.w3.org/2000/svg"
 width="1280.000000pt" height="1280.000000pt" viewBox="0 0 1280.000000 1280.000000"
 preserveAspectRatio="xMidYMid meet">
<metadata>
Created by potrace 1.14, written by Peter Selinger 2001-2017
</metadata>
<g transform="translate(0.000000,1280.000000) scale(0.100000,-0.100000)"
fill="#000000" stroke="none">
<path d="M6088 12795 c-2 -2 -55 -6 -118 -9 -63 -3 -133 -8 -155 -10 -22 -3
-63 -8 -91 -11 -125 -12 -315 -39 -399 -55 -66 -13 -102 -19 -145 -26 -19 -3
-43 -7 -52 -10 -9 -3 -27 -7 -40 -9 -173 -34 -455 -107 -638 -166 -769 -250
-1459 -622 -2075 -1118 -71 -57 -168 -139 -214 -180 -46 -42 -98 -89 -115
-104 -101 -91 -351 -347 -455 -465 -208 -236 -466 -585 -645 -871 -112 -177
-325 -581 -391 -741 -15 -36 -35 -83 -45 -105 -39 -86 -154 -383 -165 -425 -2
-8 -17 -55 -33 -105 -68 -203 -159 -549 -185 -700 -3 -16 -10 -55 -16 -85 -14
-75 -19 -104 -31 -180 -6 -36 -13 -76 -15 -90 -3 -14 -7 -50 -11 -80 -3 -30
-7 -66 -9 -79 -2 -12 -7 -60 -11 -105 -3 -44 -8 -83 -9 -86 -10 -17 -20 -317
-19 -585 0 -276 5 -423 19 -550 3 -22 7 -67 10 -100 8 -82 15 -145 20 -175 2
-14 7 -45 10 -70 14 -107 49 -297 81 -445 20 -88 37 -167 39 -176 50 -234 223
-746 341 -1007 13 -29 24 -55 24 -57 0 -9 188 -389 233 -471 91 -167 246 -415
374 -599 80 -114 298 -398 348 -451 5 -6 35 -40 65 -75 123 -144 402 -427 551
-559 46 -41 86 -77 89 -80 3 -3 43 -37 90 -75 47 -38 87 -72 90 -75 23 -31
514 -376 650 -458 78 -46 209 -122 270 -157 105 -58 457 -230 555 -270 50 -20
104 -43 120 -50 112 -48 461 -172 535 -190 8 -2 44 -13 80 -24 123 -38 391
-104 520 -127 14 -3 57 -11 95 -19 39 -7 86 -16 105 -19 19 -3 44 -7 55 -10
44 -9 140 -21 235 -31 19 -2 53 -6 75 -9 202 -27 407 -38 705 -39 197 0 481 9
533 18 12 2 54 6 92 9 39 3 80 8 92 10 12 3 53 8 90 11 37 4 75 8 83 10 8 2
40 7 70 10 59 6 220 35 365 65 50 10 101 21 115 24 103 20 417 108 605 171
219 73 501 185 699 279 54 26 108 52 120 57 54 23 338 180 441 242 506 310
858 588 1269 1002 838 846 1411 1893 1681 3075 11 46 44 210 49 240 3 19 8 45
10 56 2 12 7 39 10 60 3 22 8 50 11 64 3 14 7 41 9 60 10 86 18 147 22 170 2
14 6 57 10 95 3 39 7 81 9 95 27 161 26 878 0 1135 -2 22 -7 67 -10 100 -3 33
-10 89 -15 125 -5 36 -12 88 -15 115 -3 28 -8 61 -11 73 -3 13 -7 43 -10 65
-5 33 -50 266 -69 357 -76 358 -240 844 -417 1240 -24 53 -165 335 -200 400
-122 226 -333 554 -492 765 -80 107 -234 302 -261 331 -15 17 -138 154 -158
178 -127 146 -481 479 -672 631 -27 22 -52 43 -55 46 -3 3 -70 54 -150 114
-329 243 -631 430 -970 599 -131 65 -189 92 -330 154 -56 25 -227 93 -300 120
-30 11 -75 28 -100 37 -204 77 -760 229 -825 226 -2 0 -19 5 -37 10 -18 5 -46
12 -63 14 -16 3 -77 14 -135 25 -58 10 -127 21 -155 25 -27 3 -61 7 -75 10
-14 2 -50 7 -80 10 -30 3 -68 7 -85 10 -16 2 -68 6 -115 10 -47 4 -101 9 -120
11 -39 6 -757 13 -762 9z"/>
</g>
</svg>
